<svg version="1.1" xmlns="http://www.w3.org/2000/svg" viewBox="0 0 880.653076171875 636.1132812499999" width="880.653076171875" height="636.1132812499999">
  <!-- svg-source:excalidraw -->
  
  <defs>
    <style class="style-fonts">
      @font-face {
        font-family: "Virgil";
        src: url("https://excalidraw.com/Virgil.woff2");
      }
      @font-face {
        font-family: "Cascadia";
        src: url("https://excalidraw.com/Cascadia.woff2");
      }
    </style>
  </defs>
  <rect x="0" y="0" width="880.653076171875" height="636.1132812499999" fill="#ffffff"></rect><g stroke-opacity="0.3" fill-opacity="0.3" transform="translate(56.5078125 303.8984375) rotate(319.59152556058706 291.81071162025137 74.517578125)"><text x="0" y="0" font-family="Virgil, Segoe UI Emoji" font-size="119.22812500000006px" fill="#1864ab" text-anchor="start" style="white-space: pre;" direction="ltr" dominant-baseline="text-before-edge">endrcn.dev</text></g><g stroke-linecap="round" transform="translate(116.51182357480269 169.8283242390305) rotate(0 18.156435960358152 27.76784371236812)"><path d="M-0.24 1.78 L34.54 -0.24 L35.19 57.18 L-1.95 53.71" stroke="none" stroke-width="0" fill="#ced4da"></path><path d="M-0.62 -1.32 C11.86 0.81, 26.63 -1.28, 37.53 -0.66 M0.39 0.17 C13.66 -1.12, 27.51 0.24, 37.1 -0.45 M36.2 1.76 C38.12 20.76, 35.26 40.79, 35.66 56.16 M36.93 -0.48 C35.98 19.61, 35.63 39.8, 35.92 54.85 M38.29 54.12 C24.09 54.01, 6.22 57.37, -0.46 55.08 M35.59 55.34 C27.69 55.59, 20.05 55.99, -0.35 55.55 M-1.75 54.62 C-0.35 38.94, 1.34 18.04, -0.91 -0.78 M0.31 55.25 C1.54 38.68, 0.22 22.56, -0.63 -0.86" stroke="#000000" stroke-width="1" fill="none"></path></g><g stroke-linecap="round" transform="translate(120.6692482174073 174.0623970225388) rotate(0 14.306709383395486 21.237274707205614)"><path d="M-1.77 -0.24 L27.49 1.65 L26.66 40.65 L0.37 42.15" stroke="none" stroke-width="0" fill="#fff"></path><path d="M-1.93 1.09 C9.88 -0.81, 22.87 -0.47, 30.25 -1.55 M-0.21 -0.77 C11.06 0.53, 23.36 -0.5, 29.31 0.49 M30.14 0.25 C27.26 8.86, 27.93 18.82, 29.81 42.6 M28.24 -0.39 C28.15 12.18, 28.48 24.06, 29.49 42.56 M30.45 40.64 C15.58 43.79, 6.03 41.81, -1.58 44.14 M28.01 42.51 C19.7 42.86, 10.89 42.43, 0.25 41.69 M-0.79 43.93 C1.28 32.01, -0.54 23.54, 0.01 -1.97 M0.99 42.31 C-0.46 28.59, -0.76 13.01, -0.12 0.89" stroke="#000000" stroke-width="1" fill="none"></path></g><g stroke-linecap="round" transform="translate(132.04600871466988 218.35467809182353) rotate(0 2.929948886132877 2.929948886132877)"><path d="M1.63 -0.82 C2.06 -1.08, 2.91 -0.64, 3.52 -0.07 C4.12 0.51, 4.85 2.1, 5.29 2.65 C5.73 3.2, 6.36 2.83, 6.14 3.23 C5.91 3.64, 4.56 4.81, 3.94 5.07 C3.33 5.34, 2.91 4.82, 2.43 4.83 C1.95 4.84, 1.51 5.27, 1.05 5.12 C0.6 4.97, -0.2 4.66, -0.29 3.93 C-0.38 3.19, -0.08 1.48, 0.52 0.72 C1.12 -0.04, 2.99 -0.51, 3.32 -0.63 C3.66 -0.76, 2.45 -0.03, 2.53 -0.02 M1.29 -1.36 C2.07 -1.68, 4.02 -0.32, 4.95 0.33 C5.88 0.99, 6.7 1.8, 6.87 2.57 C7.04 3.34, 6.52 4.4, 5.97 4.94 C5.43 5.48, 4.44 5.89, 3.6 5.81 C2.75 5.74, 1.41 4.67, 0.92 4.49 C0.43 4.31, 0.63 5.23, 0.68 4.74 C0.73 4.26, 1.14 2, 1.23 1.58 C1.33 1.15, 0.94 2.41, 1.24 2.2 C1.55 2, 2.6 0.78, 3.07 0.35 C3.54 -0.09, 3.9 -0.45, 4.07 -0.43" stroke="none" stroke-width="0" fill="#fff"></path><path d="M3.03 -0.68 C3.65 -0.75, 4.69 0.32, 5.15 0.68 C5.6 1.05, 5.8 1.04, 5.77 1.51 C5.74 1.98, 5.08 2.72, 4.98 3.49 C4.88 4.26, 5.63 5.63, 5.16 6.13 C4.7 6.64, 2.83 6.88, 2.19 6.54 C1.55 6.2, 1.7 4.54, 1.33 4.12 C0.95 3.7, -0.05 4.49, -0.05 4.03 C-0.05 3.57, 1 2.03, 1.32 1.34 C1.63 0.66, 1.65 0.07, 1.84 -0.09 C2.04 -0.25, 2.27 0.29, 2.49 0.37 M2.24 -0.58 C2.51 -0.57, 3.14 0.01, 3.63 0.32 C4.13 0.63, 4.67 0.59, 5.21 1.27 C5.74 1.95, 6.81 3.44, 6.84 4.42 C6.86 5.39, 6.32 6.67, 5.35 7.12 C4.37 7.56, 2.03 7.78, 0.98 7.1 C-0.06 6.42, -0.95 3.84, -0.92 3.02 C-0.89 2.21, 0.91 2.77, 1.16 2.2 C1.42 1.63, 0.13 -0.06, 0.61 -0.42 C1.09 -0.78, 3.87 0.03, 4.05 0.06 C4.24 0.09, 2.08 -0.29, 1.72 -0.24" stroke="#000000" stroke-width="1" fill="none"></path></g><g stroke-linecap="round" transform="translate(124.9148630695874 179.46917264159987) rotate(0 10.06109453121536 5.0994049716289)"><path d="M0 0 C0 0, 0 0, 0 0 M0 0 C0 0, 0 0, 0 0 M0.47 6.12 C1.07 3.82, 3.52 1.37, 5.24 -0.42 M0.08 6.21 C1.25 4.48, 2.92 2.38, 5.04 0.59 M1.77 11.06 C2.21 9.08, 4.3 5.9, 9.35 -0.34 M0.45 10.81 C3.74 8.31, 5.26 5.1, 9.98 0.34 M6.18 10.8 C10.83 7.39, 11.67 4.94, 14.64 1.26 M5.93 10.98 C10.11 7.39, 13.59 3.26, 15.45 -0.26 M11.74 9.9 C14.14 9.02, 15.03 7.89, 21.33 1.74 M10.86 10.69 C13.58 7.46, 17.54 4.83, 20 0.89 M17.06 10.26 C18.85 9.14, 19.9 7.37, 20.86 6.61 M17.18 10.6 C18.37 9.49, 18.85 8.82, 20.95 6.26 M0.23 10.4 C0.23 10.4, 0.23 10.4, 0.23 10.4 M0.23 10.4 C0.23 10.4, 0.23 10.4, 0.23 10.4 M5.75 9.59 C4.22 8.57, 2.97 6.5, -0.93 4.38 M5.69 10.24 C3.5 7.91, 1.26 6.28, -0.19 5.05 M13.18 10.32 C8.46 6.51, 5.2 5, -0.94 -0.79 M11.53 10.53 C7.81 5.55, 2.65 2.4, 0.67 0.54 M17.02 8.51 C15.25 7.38, 13.15 6.7, 5.91 0.83 M18.39 10.62 C14.11 6.31, 11.12 2.99, 7.12 0.43 M21.02 7.54 C19.95 4.42, 17.28 2.62, 11.43 -1.38 M21.65 8.56 C19.36 6.78, 17.76 4.56, 11.98 0.04 M21.43 2.37 C20.76 1.75, 19.65 1.06, 18.61 0.2 M21.49 2.66 C21.12 1.99, 20.3 1.46, 18.81 0.08" stroke="#fab005" stroke-width="0.5" fill="none"></path><path d="M1.21 -0.66 C8.78 -1.45, 16.16 0.88, 20.46 -0.43 M0.78 -0.45 C5.18 0.38, 8.11 -0.18, 21 0.77 M19.79 0.32 C20.67 3.25, 19.97 7, 19.63 9.82 M19.92 -0.35 C20.49 2.71, 20.49 5.83, 19.76 10.67 M19.66 9.74 C14.35 12.02, 11.82 8.91, -0.4 8.98 M19.77 10.21 C14.26 9.5, 7.03 9.41, -0.46 9.81 M-0.46 9.8 C-0.04 5.4, 0.33 2.91, -0.3 1.01 M-0.32 9.76 C-0.03 7.76, -0.42 4.35, -0.29 0.42" stroke="#000000" stroke-width="1" fill="none"></path></g><g stroke-linecap="round" transform="translate(124.9148630695874 197.70228847859448) rotate(0 10.06109453121536 5.0994049716289)"><path d="M0 0 C0 0, 0 0, 0 0 M0 0 C0 0, 0 0, 0 0 M-0.96 6.21 C1.41 3.8, 3.99 0.97, 5.17 -0.2 M-0.49 6.47 C1.38 4.11, 3.62 2.18, 4.77 0.24 M-0.25 11.85 C2.16 8.23, 5.06 4.54, 9.86 -0.6 M1.25 11.04 C2.49 8.28, 4.42 6.85, 10.9 -0.61 M7.66 10.95 C8.21 8.85, 11.05 5.42, 16.85 0.48 M6.56 11.55 C9.9 7.66, 13.03 2.61, 14.94 0.66 M12.32 11.26 C14.91 8.23, 19.3 4.13, 20.66 0.15 M10.75 10.64 C14.46 8.48, 15.82 5.87, 21.28 0.61 M17.29 10.93 C17.91 9.69, 19.2 8.56, 20.72 5.81 M17.34 10.65 C18.12 9.64, 19.64 7.78, 21.3 6.25 M0.23 10.4 C0.23 10.4, 0.23 10.4, 0.23 10.4 M0.23 10.4 C0.23 10.4, 0.23 10.4, 0.23 10.4 M5.8 9.92 C4.27 7.57, 1.41 6.38, 0.34 4.33 M5.66 9.87 C4.32 9.03, 3.25 8.05, -0.11 4.53 M12.19 9.9 C10.03 9.41, 5.82 5.15, 1.61 -1.13 M12.44 9.71 C9.28 8.25, 7.25 6.21, -0.43 -0.16 M17.77 9.59 C15.09 8.25, 10.99 5.09, 6.96 -1.04 M17.71 9.44 C14.3 5.92, 10.32 3.38, 6.5 0.19 M22.79 6.95 C20.97 5.8, 17.24 3.57, 11.09 -0.54 M21.43 8.67 C19.86 6.49, 17.65 4.98, 12.18 0.06 M21.65 2.48 C20.28 1.54, 19.33 0.8, 18.3 0.24 M21.8 2.59 C20.99 2.07, 20.54 1.58, 18.47 -0.02" stroke="#fab005" stroke-width="0.5" fill="none"></path><path d="M1.64 -1.55 C6.93 0.85, 10.4 -0.36, 18.58 -0.46 M0.69 0.49 C6.35 0.03, 15.3 0.86, 20.25 -0.66 M20.73 0.06 C20 3.56, 19.6 5.5, 19.73 9.46 M20.57 0.05 C20.52 3.37, 19.72 6.2, 19.65 9.7 M18.54 11.86 C12.63 8.71, 4.59 8.94, 0.08 9.74 M20.37 9.41 C12.33 9.33, 5.81 9.81, 0.73 10.65 M0.01 9.2 C0.42 8.16, -0.25 6.51, -0.17 -0.34 M-0.06 10.65 C-0.39 6.66, -0.22 3.66, -0.5 -0.47" stroke="#000000" stroke-width="1" fill="none"></path></g><g stroke-linecap="round" transform="translate(35.665483113467474 177.12773950354972) rotate(0 32.78779073309698 19.62312309816957)"><path d="M1.73 1.97 C13.77 1.78, 28.53 -2.03, 67.09 -0.46 M0.04 -0.72 C17.97 -1.15, 36.38 -0.78, 66.02 -0.35 M63.85 -1.75 C64.76 11.04, 67.13 24.56, 64.18 38.34 M65.94 0.31 C65.29 11.23, 65.41 20.14, 65.99 38.61 M63.8 39 C50.43 41.48, 35.58 38, 0.37 38.92 M66.04 38.91 C41.27 38.65, 15.88 39.56, 0.13 40.06 M0.42 39.7 C1.67 29.49, 1.7 21.26, 1.72 1.82 M-0.37 38.89 C0.67 27.83, 0.58 17.68, 0.7 0.86" stroke="#000000" stroke-width="1" fill="none"></path></g><g stroke-linecap="round"><g transform="translate(35.11394391748644 182.62290603535303) rotate(0 33.75818926264617 0.0513466462518295)"><path d="M1.18 -0.85 C12.36 -1.21, 56.55 -1.4, 67.17 -1.1 M0.35 1.31 C11.45 1.59, 55.67 0.23, 66.8 -0.14" stroke="#000000" stroke-width="1" fill="none"></path></g></g><mask></mask><g stroke-linecap="round" transform="translate(37.96683366205497 179.31809195744177) rotate(0 1.2824372320421844 1.2824372320421844)"><path d="M2.56 1.28 C2.56 1.36, 2.56 1.43, 2.55 1.51 C2.53 1.58, 2.51 1.65, 2.49 1.72 C2.46 1.79, 2.43 1.86, 2.39 1.92 C2.36 1.99, 2.31 2.05, 2.26 2.11 C2.22 2.16, 2.16 2.22, 2.11 2.26 C2.05 2.31, 1.99 2.36, 1.92 2.39 C1.86 2.43, 1.79 2.46, 1.72 2.49 C1.65 2.51, 1.58 2.53, 1.51 2.55 C1.43 2.56, 1.36 2.56, 1.28 2.56 C1.21 2.56, 1.13 2.56, 1.06 2.55 C0.99 2.53, 0.91 2.51, 0.84 2.49 C0.77 2.46, 0.71 2.43, 0.64 2.39 C0.58 2.36, 0.51 2.31, 0.46 2.26 C0.4 2.22, 0.35 2.16, 0.3 2.11 C0.25 2.05, 0.21 1.99, 0.17 1.92 C0.13 1.86, 0.1 1.79, 0.08 1.72 C0.05 1.65, 0.03 1.58, 0.02 1.51 C0.01 1.43, 0 1.36, 0 1.28 C0 1.21, 0.01 1.13, 0.02 1.06 C0.03 0.99, 0.05 0.91, 0.08 0.84 C0.1 0.77, 0.13 0.71, 0.17 0.64 C0.21 0.58, 0.25 0.51, 0.3 0.46 C0.35 0.4, 0.4 0.35, 0.46 0.3 C0.51 0.25, 0.58 0.21, 0.64 0.17 C0.71 0.13, 0.77 0.1, 0.84 0.08 C0.91 0.05, 0.99 0.03, 1.06 0.02 C1.13 0.01, 1.21 0, 1.28 0 C1.36 0, 1.43 0.01, 1.51 0.02 C1.58 0.03, 1.65 0.05, 1.72 0.08 C1.79 0.1, 1.86 0.13, 1.92 0.17 C1.99 0.21, 2.05 0.25, 2.11 0.3 C2.16 0.35, 2.22 0.4, 2.26 0.46 C2.31 0.51, 2.36 0.58, 2.39 0.64 C2.43 0.71, 2.46 0.77, 2.49 0.84 C2.51 0.91, 2.53 0.99, 2.55 1.06 C2.56 1.13, 2.56 1.25, 2.56 1.28 C2.57 1.32, 2.57 1.25, 2.56 1.28" stroke="none" stroke-width="0" fill="#fa5252"></path><path d="M2.56 1.28 C2.56 1.36, 2.56 1.43, 2.55 1.51 C2.53 1.58, 2.51 1.65, 2.49 1.72 C2.46 1.79, 2.43 1.86, 2.39 1.92 C2.36 1.99, 2.31 2.05, 2.26 2.11 C2.22 2.16, 2.16 2.22, 2.11 2.26 C2.05 2.31, 1.99 2.36, 1.92 2.39 C1.86 2.43, 1.79 2.46, 1.72 2.49 C1.65 2.51, 1.58 2.53, 1.51 2.55 C1.43 2.56, 1.36 2.56, 1.28 2.56 C1.21 2.56, 1.13 2.56, 1.06 2.55 C0.99 2.53, 0.91 2.51, 0.84 2.49 C0.77 2.46, 0.71 2.43, 0.64 2.39 C0.58 2.36, 0.51 2.31, 0.46 2.26 C0.4 2.22, 0.35 2.16, 0.3 2.11 C0.25 2.05, 0.21 1.99, 0.17 1.92 C0.13 1.86, 0.1 1.79, 0.08 1.72 C0.05 1.65, 0.03 1.58, 0.02 1.51 C0.01 1.43, 0 1.36, 0 1.28 C0 1.21, 0.01 1.13, 0.02 1.06 C0.03 0.99, 0.05 0.91, 0.08 0.84 C0.1 0.77, 0.13 0.71, 0.17 0.64 C0.21 0.58, 0.25 0.51, 0.3 0.46 C0.35 0.4, 0.4 0.35, 0.46 0.3 C0.51 0.25, 0.58 0.21, 0.64 0.17 C0.71 0.13, 0.77 0.1, 0.84 0.08 C0.91 0.05, 0.99 0.03, 1.06 0.02 C1.13 0.01, 1.21 0, 1.28 0 C1.36 0, 1.43 0.01, 1.51 0.02 C1.58 0.03, 1.65 0.05, 1.72 0.08 C1.79 0.1, 1.86 0.13, 1.92 0.17 C1.99 0.21, 2.05 0.25, 2.11 0.3 C2.16 0.35, 2.22 0.4, 2.26 0.46 C2.31 0.51, 2.36 0.58, 2.39 0.64 C2.43 0.71, 2.46 0.77, 2.49 0.84 C2.51 0.91, 2.53 0.99, 2.55 1.06 C2.56 1.13, 2.56 1.25, 2.56 1.28 C2.57 1.32, 2.57 1.25, 2.56 1.28" stroke="#000000" stroke-width="1" fill="none"></path></g><g stroke-linecap="round" transform="translate(43.22928304570627 179.31809195744177) rotate(0 1.2824372320421844 1.2824372320421844)"><path d="M2.56 1.28 C2.56 1.36, 2.56 1.43, 2.55 1.51 C2.53 1.58, 2.51 1.65, 2.49 1.72 C2.46 1.79, 2.43 1.86, 2.39 1.92 C2.36 1.99, 2.31 2.05, 2.26 2.11 C2.22 2.16, 2.16 2.22, 2.11 2.26 C2.05 2.31, 1.99 2.36, 1.92 2.39 C1.86 2.43, 1.79 2.46, 1.72 2.49 C1.65 2.51, 1.58 2.53, 1.51 2.55 C1.43 2.56, 1.36 2.56, 1.28 2.56 C1.21 2.56, 1.13 2.56, 1.06 2.55 C0.99 2.53, 0.91 2.51, 0.84 2.49 C0.77 2.46, 0.71 2.43, 0.64 2.39 C0.58 2.36, 0.51 2.31, 0.46 2.26 C0.4 2.22, 0.35 2.16, 0.3 2.11 C0.25 2.05, 0.21 1.99, 0.17 1.92 C0.13 1.86, 0.1 1.79, 0.08 1.72 C0.05 1.65, 0.03 1.58, 0.02 1.51 C0.01 1.43, 0 1.36, 0 1.28 C0 1.21, 0.01 1.13, 0.02 1.06 C0.03 0.99, 0.05 0.91, 0.08 0.84 C0.1 0.77, 0.13 0.71, 0.17 0.64 C0.21 0.58, 0.25 0.51, 0.3 0.46 C0.35 0.4, 0.4 0.35, 0.46 0.3 C0.51 0.25, 0.58 0.21, 0.64 0.17 C0.71 0.13, 0.77 0.1, 0.84 0.08 C0.91 0.05, 0.99 0.03, 1.06 0.02 C1.13 0.01, 1.21 0, 1.28 0 C1.36 0, 1.43 0.01, 1.51 0.02 C1.58 0.03, 1.65 0.05, 1.72 0.08 C1.79 0.1, 1.86 0.13, 1.92 0.17 C1.99 0.21, 2.05 0.25, 2.11 0.3 C2.16 0.35, 2.22 0.4, 2.26 0.46 C2.31 0.51, 2.36 0.58, 2.39 0.64 C2.43 0.71, 2.46 0.77, 2.49 0.84 C2.51 0.91, 2.53 0.99, 2.55 1.06 C2.56 1.13, 2.56 1.25, 2.56 1.28 C2.57 1.32, 2.57 1.25, 2.56 1.28" stroke="none" stroke-width="0" fill="#fab005"></path><path d="M2.56 1.28 C2.56 1.36, 2.56 1.43, 2.55 1.51 C2.53 1.58, 2.51 1.65, 2.49 1.72 C2.46 1.79, 2.43 1.86, 2.39 1.92 C2.36 1.99, 2.31 2.05, 2.26 2.11 C2.22 2.16, 2.16 2.22, 2.11 2.26 C2.05 2.31, 1.99 2.36, 1.92 2.39 C1.86 2.43, 1.79 2.46, 1.72 2.49 C1.65 2.51, 1.58 2.53, 1.51 2.55 C1.43 2.56, 1.36 2.56, 1.28 2.56 C1.21 2.56, 1.13 2.56, 1.06 2.55 C0.99 2.53, 0.91 2.51, 0.84 2.49 C0.77 2.46, 0.71 2.43, 0.64 2.39 C0.58 2.36, 0.51 2.31, 0.46 2.26 C0.4 2.22, 0.35 2.16, 0.3 2.11 C0.25 2.05, 0.21 1.99, 0.17 1.92 C0.13 1.86, 0.1 1.79, 0.08 1.72 C0.05 1.65, 0.03 1.58, 0.02 1.51 C0.01 1.43, 0 1.36, 0 1.28 C0 1.21, 0.01 1.13, 0.02 1.06 C0.03 0.99, 0.05 0.91, 0.08 0.84 C0.1 0.77, 0.13 0.71, 0.17 0.64 C0.21 0.58, 0.25 0.51, 0.3 0.46 C0.35 0.4, 0.4 0.35, 0.46 0.3 C0.51 0.25, 0.58 0.21, 0.64 0.17 C0.71 0.13, 0.77 0.1, 0.84 0.08 C0.91 0.05, 0.99 0.03, 1.06 0.02 C1.13 0.01, 1.21 0, 1.28 0 C1.36 0, 1.43 0.01, 1.51 0.02 C1.58 0.03, 1.65 0.05, 1.72 0.08 C1.79 0.1, 1.86 0.13, 1.92 0.17 C1.99 0.21, 2.05 0.25, 2.11 0.3 C2.16 0.35, 2.22 0.4, 2.26 0.46 C2.31 0.51, 2.36 0.58, 2.39 0.64 C2.43 0.71, 2.46 0.77, 2.49 0.84 C2.51 0.91, 2.53 0.99, 2.55 1.06 C2.56 1.13, 2.56 1.25, 2.56 1.28 C2.57 1.32, 2.57 1.25, 2.56 1.28" stroke="#000000" stroke-width="1" fill="none"></path></g><g stroke-linecap="round" transform="translate(48.72285078433487 179.54921031241884) rotate(0 1.2824372320421844 1.2824372320421844)"><path d="M2.56 1.28 C2.56 1.36, 2.56 1.43, 2.55 1.51 C2.53 1.58, 2.51 1.65, 2.49 1.72 C2.46 1.79, 2.43 1.86, 2.39 1.92 C2.36 1.99, 2.31 2.05, 2.26 2.11 C2.22 2.16, 2.16 2.22, 2.11 2.26 C2.05 2.31, 1.99 2.36, 1.92 2.39 C1.86 2.43, 1.79 2.46, 1.72 2.49 C1.65 2.51, 1.58 2.53, 1.51 2.55 C1.43 2.56, 1.36 2.56, 1.28 2.56 C1.21 2.56, 1.13 2.56, 1.06 2.55 C0.99 2.53, 0.91 2.51, 0.84 2.49 C0.77 2.46, 0.71 2.43, 0.64 2.39 C0.58 2.36, 0.51 2.31, 0.46 2.26 C0.4 2.22, 0.35 2.16, 0.3 2.11 C0.25 2.05, 0.21 1.99, 0.17 1.92 C0.13 1.86, 0.1 1.79, 0.08 1.72 C0.05 1.65, 0.03 1.58, 0.02 1.51 C0.01 1.43, 0 1.36, 0 1.28 C0 1.21, 0.01 1.13, 0.02 1.06 C0.03 0.99, 0.05 0.91, 0.08 0.84 C0.1 0.77, 0.13 0.71, 0.17 0.64 C0.21 0.58, 0.25 0.51, 0.3 0.46 C0.35 0.4, 0.4 0.35, 0.46 0.3 C0.51 0.25, 0.58 0.21, 0.64 0.17 C0.71 0.13, 0.77 0.1, 0.84 0.08 C0.91 0.05, 0.99 0.03, 1.06 0.02 C1.13 0.01, 1.21 0, 1.28 0 C1.36 0, 1.43 0.01, 1.51 0.02 C1.58 0.03, 1.65 0.05, 1.72 0.08 C1.79 0.1, 1.86 0.13, 1.92 0.17 C1.99 0.21, 2.05 0.25, 2.11 0.3 C2.16 0.35, 2.22 0.4, 2.26 0.46 C2.31 0.51, 2.36 0.58, 2.39 0.64 C2.43 0.71, 2.46 0.77, 2.49 0.84 C2.51 0.91, 2.53 0.99, 2.55 1.06 C2.56 1.13, 2.56 1.25, 2.56 1.28 C2.57 1.32, 2.57 1.25, 2.56 1.28" stroke="none" stroke-width="0" fill="#40c057"></path><path d="M2.56 1.28 C2.56 1.36, 2.56 1.43, 2.55 1.51 C2.53 1.58, 2.51 1.65, 2.49 1.72 C2.46 1.79, 2.43 1.86, 2.39 1.92 C2.36 1.99, 2.31 2.05, 2.26 2.11 C2.22 2.16, 2.16 2.22, 2.11 2.26 C2.05 2.31, 1.99 2.36, 1.92 2.39 C1.86 2.43, 1.79 2.46, 1.72 2.49 C1.65 2.51, 1.58 2.53, 1.51 2.55 C1.43 2.56, 1.36 2.56, 1.28 2.56 C1.21 2.56, 1.13 2.56, 1.06 2.55 C0.99 2.53, 0.91 2.51, 0.84 2.49 C0.77 2.46, 0.71 2.43, 0.64 2.39 C0.58 2.36, 0.51 2.31, 0.46 2.26 C0.4 2.22, 0.35 2.16, 0.3 2.11 C0.25 2.05, 0.21 1.99, 0.17 1.92 C0.13 1.86, 0.1 1.79, 0.08 1.72 C0.05 1.65, 0.03 1.58, 0.02 1.51 C0.01 1.43, 0 1.36, 0 1.28 C0 1.21, 0.01 1.13, 0.02 1.06 C0.03 0.99, 0.05 0.91, 0.08 0.84 C0.1 0.77, 0.13 0.71, 0.17 0.64 C0.21 0.58, 0.25 0.51, 0.3 0.46 C0.35 0.4, 0.4 0.35, 0.46 0.3 C0.51 0.25, 0.58 0.21, 0.64 0.17 C0.71 0.13, 0.77 0.1, 0.84 0.08 C0.91 0.05, 0.99 0.03, 1.06 0.02 C1.13 0.01, 1.21 0, 1.28 0 C1.36 0, 1.43 0.01, 1.51 0.02 C1.58 0.03, 1.65 0.05, 1.72 0.08 C1.79 0.1, 1.86 0.13, 1.92 0.17 C1.99 0.21, 2.05 0.25, 2.11 0.3 C2.16 0.35, 2.22 0.4, 2.26 0.46 C2.31 0.51, 2.36 0.58, 2.39 0.64 C2.43 0.71, 2.46 0.77, 2.49 0.84 C2.51 0.91, 2.53 0.99, 2.55 1.06 C2.56 1.13, 2.56 1.25, 2.56 1.28 C2.57 1.32, 2.57 1.25, 2.56 1.28" stroke="#000000" stroke-width="1" fill="none"></path></g><g stroke-opacity="0.9" fill-opacity="0.9" stroke-linecap="round" transform="translate(56.94112041608338 187.78045718626583) rotate(0 10.95291717610371 10.95291717610371)"><path d="M13.08 0.18 C15.31 0.5, 18.35 2.79, 19.76 4.32 C21.17 5.86, 21.58 7.28, 21.54 9.41 C21.5 11.53, 20.93 15.01, 19.53 17.1 C18.13 19.18, 15.56 21.28, 13.15 21.92 C10.74 22.57, 7.24 21.97, 5.09 20.99 C2.93 20, 0.84 18.29, 0.21 16.02 C-0.42 13.76, 0.63 9.72, 1.31 7.38 C2 5.05, 2.23 3.16, 4.33 2 C6.43 0.83, 11.85 0.35, 13.92 0.42 C15.99 0.48, 16.78 2.25, 16.74 2.41 M9.12 0.6 C10.94 0.36, 14.14 1.01, 16 2.23 C17.87 3.46, 19.62 5.81, 20.3 7.97 C20.97 10.12, 21.07 13.11, 20.05 15.16 C19.02 17.21, 16.34 19.05, 14.17 20.26 C11.99 21.47, 9.14 23.1, 7.01 22.42 C4.88 21.73, 2.78 18.48, 1.41 16.16 C0.03 13.85, -1.66 10.62, -1.21 8.54 C-0.77 6.45, 2.37 5.05, 4.07 3.65 C5.77 2.24, 8.02 0.67, 9 0.08 C9.97 -0.5, 9.48 -0.03, 9.9 0.15" stroke="none" stroke-width="0" fill="#04aaf7"></path><path d="M10.54 0.04 C12.86 0.05, 16.1 1.6, 17.91 3.13 C19.73 4.67, 20.97 7.15, 21.42 9.26 C21.87 11.37, 21.88 13.95, 20.59 15.81 C19.29 17.68, 15.99 19.61, 13.65 20.44 C11.31 21.26, 8.49 21.4, 6.56 20.78 C4.64 20.16, 3.27 18.77, 2.1 16.71 C0.92 14.65, -0.76 10.78, -0.49 8.4 C-0.23 6.02, 1.62 3.76, 3.67 2.44 C5.72 1.13, 9.98 0.85, 11.81 0.52 C13.64 0.19, 14.33 0.38, 14.63 0.47 M7.86 -0.03 C10.16 -0.6, 15.65 -0.89, 17.85 0.19 C20.06 1.28, 20.34 4.28, 21.1 6.47 C21.87 8.66, 23.47 10.95, 22.44 13.34 C21.42 15.72, 17.26 19.19, 14.97 20.77 C12.68 22.35, 10.73 23.22, 8.7 22.81 C6.68 22.4, 4.15 20.41, 2.81 18.33 C1.48 16.26, 0.7 12.96, 0.7 10.35 C0.7 7.73, 1.63 4.32, 2.83 2.66 C4.03 0.99, 6.81 0.52, 7.91 0.34 C9 0.16, 9.32 1.38, 9.39 1.58" stroke="#000000" stroke-width="1" fill="none"></path></g><g stroke-linecap="round"><g transform="translate(70.8261148974837 196.09989266806906) rotate(0 -1.776297153590491 3.3230109606273572)" fill-rule="evenodd"><path d="M0 0 L-3.88 -3.22 L-5.82 -2.23 L-6.47 1.22 L-5.78 3.46 L-8.93 4.56 L-8.82 7 L-6.35 6.85 L-4.46 4.86 L-0.76 9.94 L-0.21 9.32 L-1.94 2.46 L-0.78 1.87 L1.62 3.01 L4.74 3.01 L5.54 0.33 L2.16 0.57 L2.81 -2.95 L1.27 -2.74 L0 0" stroke="none" stroke-width="0" fill="#40c057" fill-rule="evenodd"></path><path d="M0 0 C-0.16 -0.04, -0.29 0.32, -0.94 -0.21 C-1.59 -0.75, -3.07 -2.88, -3.88 -3.22 C-4.7 -3.55, -5.39 -2.97, -5.82 -2.23 C-6.25 -1.49, -6.47 0.27, -6.47 1.22 C-6.46 2.16, -5.37 2.9, -5.78 3.46 C-6.19 4.01, -8.43 3.97, -8.93 4.56 C-9.44 5.15, -9.25 6.61, -8.82 7 C-8.39 7.38, -7.08 7.2, -6.35 6.85 C-5.62 6.49, -5.21 4.47, -4.46 4.86 C-3.71 5.25, -2.56 8.42, -1.86 9.16 C-1.15 9.9, -0.2 10.43, -0.21 9.32 C-0.23 8.2, -2.09 3.64, -1.94 2.46 C-1.78 1.28, 0.12 2.14, 0.71 2.23 C1.3 2.32, 0.95 2.88, 1.62 3.01 C2.29 3.14, 4.08 3.46, 4.74 3.01 C5.39 2.56, 5.97 0.73, 5.54 0.33 C5.11 -0.08, 2.62 1.12, 2.16 0.57 C1.71 0.02, 2.96 -2.4, 2.81 -2.95 C2.66 -3.51, 1.76 -3.15, 1.27 -2.74 C0.78 -2.33, 0.09 -0.93, -0.12 -0.47 C-0.33 -0.02, -0.02 -0.08, 0 0 M0 0 C-0.16 -0.04, -0.29 0.32, -0.94 -0.21 C-1.59 -0.75, -3.07 -2.88, -3.88 -3.22 C-4.7 -3.55, -5.39 -2.97, -5.82 -2.23 C-6.25 -1.49, -6.47 0.27, -6.47 1.22 C-6.46 2.16, -5.37 2.9, -5.78 3.46 C-6.19 4.01, -8.43 3.97, -8.93 4.56 C-9.44 5.15, -9.25 6.61, -8.82 7 C-8.39 7.38, -7.08 7.2, -6.35 6.85 C-5.62 6.49, -5.21 4.47, -4.46 4.86 C-3.71 5.25, -2.56 8.42, -1.86 9.16 C-1.15 9.9, -0.2 10.43, -0.21 9.32 C-0.23 8.2, -2.09 3.64, -1.94 2.46 C-1.78 1.28, 0.12 2.14, 0.71 2.23 C1.3 2.32, 0.95 2.88, 1.62 3.01 C2.29 3.14, 4.08 3.46, 4.74 3.01 C5.39 2.56, 5.97 0.73, 5.54 0.33 C5.11 -0.08, 2.62 1.12, 2.16 0.57 C1.71 0.02, 2.96 -2.4, 2.81 -2.95 C2.66 -3.51, 1.76 -3.15, 1.27 -2.74 C0.78 -2.33, 0.09 -0.93, -0.12 -0.47 C-0.33 -0.02, -0.02 -0.08, 0 0" stroke="#087f5b" stroke-width="1" fill="none"></path></g></g><mask></mask><g stroke-linecap="round"><g stroke-opacity="0.9" fill-opacity="0.9" transform="translate(57.48418074224418 198.52968608793242) rotate(0 9.902139597555589 0.4421620486676545)"><path d="M-0.24 -0.73 C3.36 -0.63, 17.9 -0.33, 21.63 -0.28 M-1.83 1.5 C1.61 1.86, 16.8 1.26, 20.71 1.12" stroke="#000000" stroke-width="1" fill="none"></path></g></g><mask></mask><g stroke-linecap="round"><g stroke-opacity="0.9" fill-opacity="0.9" transform="translate(60.09693599763767 190.6152518418205) rotate(0 7.516918243885584 1.3473742365155772)"><path d="M0 0 C0.07 0.19, 0.05 0.81, 0.4 1.17 C0.75 1.53, 1.44 1.88, 2.1 2.15 C2.77 2.41, 3.4 2.63, 4.38 2.74 C5.35 2.85, 6.65 2.85, 7.94 2.79 C9.22 2.74, 11 2.71, 12.09 2.42 C13.19 2.12, 14.03 1.47, 14.52 1.04 C15.01 0.62, 14.95 0.06, 15.03 -0.13 M0 0 C0.07 0.19, 0.05 0.81, 0.4 1.17 C0.75 1.53, 1.44 1.88, 2.1 2.15 C2.77 2.41, 3.4 2.63, 4.38 2.74 C5.35 2.85, 6.65 2.85, 7.94 2.79 C9.22 2.74, 11 2.71, 12.09 2.42 C13.19 2.12, 14.03 1.47, 14.52 1.04 C15.01 0.62, 14.95 0.06, 15.03 -0.13" stroke="#000000" stroke-width="1" fill="none"></path></g></g><mask></mask><g stroke-opacity="0.9" fill-opacity="0.9" stroke-linecap="round" transform="translate(64.23703492717829 187.07153112195317) rotate(0 3.9812932812637882 11.491869253232892)"><path d="M3.14 -0.88 C3.84 -0.94, 5.19 0.53, 6.1 2.34 C7.02 4.16, 8.53 7.61, 8.63 10.02 C8.74 12.44, 7.34 14.8, 6.72 16.85 C6.1 18.9, 5.78 21.36, 4.93 22.32 C4.08 23.29, 2.3 23.54, 1.61 22.63 C0.93 21.72, 0.92 19.11, 0.83 16.88 C0.73 14.65, 1.01 11.56, 1.06 9.26 C1.1 6.95, 0.65 4.73, 1.11 3.05 C1.58 1.38, 3.23 -0.51, 3.84 -0.77 C4.46 -1.04, 4.85 1.13, 4.8 1.45 M1.51 0.73 C2.03 0.36, 4.3 1.06, 5.36 2.08 C6.42 3.1, 7.35 4.92, 7.88 6.87 C8.41 8.82, 8.77 11.64, 8.55 13.76 C8.32 15.89, 7.53 18.04, 6.52 19.61 C5.5 21.17, 3.31 22.92, 2.46 23.15 C1.61 23.38, 1.99 22.67, 1.41 20.98 C0.84 19.29, -1.11 15.63, -1 13.03 C-0.89 10.43, 1.38 7.27, 2.08 5.39 C2.78 3.51, 3.17 2.32, 3.22 1.76 C3.28 1.2, 2.42 1.83, 2.41 2.01" stroke="#000000" stroke-width="1" fill="none"></path></g><g stroke-linecap="round"><g stroke-opacity="0.9" fill-opacity="0.9" transform="translate(60.874277411813694 206.88922621757786) rotate(0 7.516918243885584 -1.390986355477878)"><path d="M0 0 C0.35 -0.37, 1.37 -1.74, 2.1 -2.22 C2.83 -2.69, 3.4 -2.72, 4.38 -2.83 C5.35 -2.94, 6.65 -2.94, 7.94 -2.88 C9.22 -2.83, 11 -2.8, 12.09 -2.49 C13.19 -2.19, 14.03 -1.52, 14.52 -1.08 C15.01 -0.64, 14.95 -0.06, 15.03 0.14 M0 0 C0.35 -0.37, 1.37 -1.74, 2.1 -2.22 C2.83 -2.69, 3.4 -2.72, 4.38 -2.83 C5.35 -2.94, 6.65 -2.94, 7.94 -2.88 C9.22 -2.83, 11 -2.8, 12.09 -2.49 C13.19 -2.19, 14.03 -1.52, 14.52 -1.08 C15.01 -0.64, 14.95 -0.06, 15.03 0.14" stroke="#000000" stroke-width="1" fill="none"></path></g></g><mask></mask><g stroke-linecap="round" transform="translate(10 126.10546875) rotate(0 87.955078125 72.322265625)"><path d="M32 0 M32 0 C69.97 1.75, 109.41 1.33, 143.91 0 M32 0 C55.85 -0.91, 79.39 -0.26, 143.91 0 M143.91 0 C166.63 -1.82, 176.03 11.96, 175.91 32 M143.91 0 C167.39 -1.83, 176.38 9.5, 175.91 32 M175.91 32 C177.04 57.81, 174.54 81.16, 175.91 112.64 M175.91 32 C174.52 50.67, 174.73 66.91, 175.91 112.64 M175.91 112.64 C176.85 133.76, 163.28 143.14, 143.91 144.64 M175.91 112.64 C175.19 134.29, 167.32 145.17, 143.91 144.64 M143.91 144.64 C121.35 143.62, 95.42 144.01, 32 144.64 M143.91 144.64 C109.87 144.67, 76.51 144.02, 32 144.64 M32 144.64 C11.91 146.3, 1.22 132.83, 0 112.64 M32 144.64 C11.17 144.69, -2.28 131.99, 0 112.64 M0 112.64 C-1.06 85.94, 1.19 59.54, 0 32 M0 112.64 C-0.44 93.25, -1.2 73.77, 0 32 M0 32 C-0.49 12.6, 10.38 -1.14, 32 0 M0 32 C1.16 11.28, 12.91 -0.55, 32 0" stroke="#000000" stroke-width="1" fill="none"></path></g><g transform="translate(34.2578125 137.3203125) rotate(0 27.049972534179688 12.5)"><text x="0" y="0" font-family="Virgil, Segoe UI Emoji" font-size="20px" fill="#000000" text-anchor="start" style="white-space: pre;" direction="ltr" dominant-baseline="text-before-edge">Client</text></g><g stroke-linecap="round" transform="translate(443.74609375 58.47265625) rotate(0 90.208984375 283.82031249999994)"><path d="M32 0 M32 0 C57 -0.44, 80.07 1.01, 148.42 0 M148.42 0 C168.7 0.59, 180.41 12.67, 180.42 32 M180.42 32 C181.07 225.02, 180.9 419.37, 180.42 535.64 M180.42 535.64 C179.19 556.04, 167.81 569.61, 148.42 567.64 M148.42 567.64 C113.5 567.06, 79.75 568.42, 32 567.64 M32 567.64 C9.71 566.06, -0.25 557.27, 0 535.64 M0 535.64 C1.07 409.55, 1 282.8, 0 32 M0 32 C-1.15 10.91, 10.45 0.6, 32 0" stroke="#000000" stroke-width="1.5" fill="none" stroke-dasharray="8 9"></path></g><g stroke-linecap="round" transform="translate(469.29296875 155.5625) rotate(0 62.279296875 23.173828125)"><path d="M3.08 2.68 C3.08 2.68, 3.08 2.68, 3.08 2.68 M3.08 2.68 C3.08 2.68, 3.08 2.68, 3.08 2.68 M1.51 10.59 C3.98 7.57, 5.56 5.58, 10.04 0.78 M1.51 10.59 C3.52 7.51, 6.34 4.71, 10.04 0.78 M1.91 16.23 C5.72 10.87, 9.59 7.52, 14.37 1.89 M1.91 16.23 C5.55 10.71, 9.76 6.53, 14.37 1.89 M1.64 22.63 C5.43 19.12, 8.43 13.11, 19.36 2.25 M1.64 22.63 C7.44 15.53, 13.27 8.11, 19.36 2.25 M2.04 28.27 C9.79 20.08, 17.98 12.13, 24.34 2.61 M2.04 28.27 C10.77 17.39, 19.26 7.44, 24.34 2.61 M1.78 34.67 C9.56 22.08, 18.17 11.2, 29.99 2.22 M1.78 34.67 C12.17 21.29, 23.21 8.68, 29.99 2.22 M2.83 39.56 C12.43 26.79, 24 14.34, 34.97 2.58 M2.83 39.56 C14.61 24.53, 27.38 10.21, 34.97 2.58 M3.88 44.45 C17.49 25.97, 32.45 12.1, 40.62 2.18 M3.88 44.45 C13.76 32.26, 23.54 20.34, 40.62 2.18 M7.55 46.32 C22.37 29.59, 33.01 15.21, 45.6 2.54 M7.55 46.32 C18.29 34.04, 28.72 22.8, 45.6 2.54 M12.54 46.68 C26.16 33.44, 37.09 17.38, 51.25 2.15 M12.54 46.68 C26.67 31.42, 39.81 14.2, 51.25 2.15 M18.18 46.28 C31.21 28.9, 47.48 10.79, 56.23 2.51 M18.18 46.28 C26.95 35.73, 37.34 23.51, 56.23 2.51 M23.17 46.64 C37.15 28.13, 52.99 12.22, 61.22 2.87 M23.17 46.64 C33.23 34.24, 43.43 22.93, 61.22 2.87 M28.81 46.25 C41.12 33.4, 48.63 22.23, 66.86 2.47 M28.81 46.25 C43.52 30.5, 56.24 13.42, 66.86 2.47 M33.8 46.61 C41.66 38.54, 50.76 26.63, 71.85 2.83 M33.8 46.61 C45.89 33.95, 57.61 19.85, 71.85 2.83 M38.79 46.97 C49.04 36.58, 62.46 23.26, 77.49 2.44 M38.79 46.97 C49.22 33.19, 61.1 19.27, 77.49 2.44 M44.43 46.57 C54.01 38.66, 59.94 27.95, 82.48 2.8 M44.43 46.57 C55.1 33.53, 66.94 19.45, 82.48 2.8 M49.42 46.93 C62.43 28.81, 78.11 13.38, 88.12 2.41 M49.42 46.93 C61.67 33.86, 74.06 19.7, 88.12 2.41 M55.06 46.54 C68.58 27.79, 85.64 11.08, 93.11 2.77 M55.06 46.54 C66.27 34.37, 76.61 21.68, 93.11 2.77 M60.05 46.9 C68.76 39.84, 74.34 27.98, 98.1 3.13 M60.05 46.9 C73.76 29.25, 89.35 13, 98.1 3.13 M65.69 46.5 C76.07 35.8, 85.12 21.11, 103.74 2.73 M65.69 46.5 C75.23 35.32, 86.14 22.38, 103.74 2.73 M70.68 46.86 C82.75 30.38, 96.64 16.29, 108.73 3.09 M70.68 46.86 C79.19 37.7, 88.66 27.55, 108.73 3.09 M75.66 47.22 C92.82 29.49, 106.14 12.9, 114.37 2.7 M75.66 47.22 C85.93 36.5, 95.1 24.57, 114.37 2.7 M81.31 46.83 C88.1 37.36, 97.84 28.23, 120.02 2.3 M81.31 46.83 C92.38 33.6, 102.49 21.89, 120.02 2.3 M86.29 47.19 C100.06 34.85, 108.72 19.15, 123.69 4.17 M86.29 47.19 C101.17 31.02, 114.58 14.94, 123.69 4.17 M91.94 46.79 C102.47 34.37, 116.96 19.91, 124.74 9.06 M91.94 46.79 C103.33 32.9, 115.52 21.36, 124.74 9.06 M96.92 47.16 C103.26 37.93, 113.89 27.91, 124.48 15.46 M96.92 47.16 C103.49 40, 111.51 31.42, 124.48 15.46 M102.57 46.76 C105.98 43.16, 111.32 37.66, 124.22 21.86 M102.57 46.76 C109.89 38.12, 117.12 30.11, 124.22 21.86 M107.55 47.12 C114.77 40.46, 119.34 33.92, 124.61 27.5 M107.55 47.12 C114.45 39.2, 120.32 30.73, 124.61 27.5 M113.2 46.73 C117.78 42.86, 121.52 39.19, 124.35 33.9 M113.2 46.73 C116.13 42.57, 118.59 39.96, 124.35 33.9" stroke="#fa5252" stroke-width="0.5" fill="none"></path><path d="M11.59 0 M11.59 0 C51.29 0.7, 89.93 -1.35, 112.97 0 M11.59 0 C47.17 0.77, 80.8 0.07, 112.97 0 M112.97 0 C119.35 1.65, 122.9 4.27, 124.56 11.59 M112.97 0 C119.02 1.48, 123.1 4.82, 124.56 11.59 M124.56 11.59 C126.61 16.11, 125.02 24.21, 124.56 34.76 M124.56 11.59 C123.58 16.4, 124.98 23.13, 124.56 34.76 M124.56 34.76 C123.36 43.85, 122.29 45.54, 112.97 46.35 M124.56 34.76 C122.9 43.6, 121.09 45.83, 112.97 46.35 M112.97 46.35 C85.75 46.64, 57.8 45.04, 11.59 46.35 M112.97 46.35 C92.12 45.44, 71.81 46.02, 11.59 46.35 M11.59 46.35 C2.37 46.53, -0.1 43.29, 0 34.76 M11.59 46.35 C5.49 44.86, -1.46 40.49, 0 34.76 M0 34.76 C1.37 27.62, -0.93 18.55, 0 11.59 M0 34.76 C0.01 29.94, -0.81 25.94, 0 11.59 M0 11.59 C0.68 2.58, 5.22 1.92, 11.59 0 M0 11.59 C-1.89 4.26, 4.09 -1.1, 11.59 0" stroke="#000000" stroke-width="1" fill="none"></path></g><g transform="translate(483.4140625 85) rotate(0 30.84996795654297 12.5)"><text x="0" y="0" font-family="Virgil, Segoe UI Emoji" font-size="20px" fill="#000000" text-anchor="start" style="white-space: pre;" direction="ltr" dominant-baseline="text-before-edge">Server</text></g><g stroke-linecap="round"><g transform="translate(186.47265625 196.5078125) rotate(0 140.53891981891357 -23.806941795904976)"><path d="M0.65 0.3 C22.28 -7.33, 83.81 -44.39, 130.63 -45.91 C177.44 -47.43, 256.66 -14.77, 281.54 -8.81 M-0.46 -0.58 C21.45 -8.58, 85.91 -46.14, 132.84 -47.85 C179.76 -49.56, 256.65 -17.24, 281.11 -10.84" stroke="#2b8a3e" stroke-width="1" fill="none"></path></g><g transform="translate(186.47265625 196.5078125) rotate(0 140.53891981891357 -23.806941795904976)"><path d="M251.64 -11.49 C262.95 -9.33, 274.6 -12.41, 279.87 -11.52 M251.04 -9.23 C263.37 -10.62, 273.16 -10.36, 280.72 -10.46" stroke="#2b8a3e" stroke-width="1" fill="none"></path></g><g transform="translate(186.47265625 196.5078125) rotate(0 140.53891981891357 -23.806941795904976)"><path d="M258.04 -30.98 C266.93 -21.48, 276.18 -17.26, 279.87 -11.52 M257.44 -28.73 C267.45 -22.67, 274.81 -14.99, 280.72 -10.46" stroke="#2b8a3e" stroke-width="1" fill="none"></path></g></g><mask></mask><g transform="translate(280.38671875 166.90234375) rotate(0 31.951980590820312 10)"><text x="0" y="0" font-family="Virgil, Segoe UI Emoji" font-size="16px" fill="#000000" text-anchor="start" style="white-space: pre;" direction="ltr" dominant-baseline="text-before-edge">Request</text></g><g transform="translate(481.4140625 168) rotate(0 47.655967712402344 10)"><text x="0" y="0" font-family="Virgil, Segoe UI Emoji" font-size="16px" fill="#000000" text-anchor="start" style="white-space: pre;" direction="ltr" dominant-baseline="text-before-edge">Middleware 1</text></g><g stroke-linecap="round" transform="translate(472.853515625 282.025390625) rotate(0 62.279296875 22.67578125)"><path d="M3.02 2.62 C3.02 2.62, 3.02 2.62, 3.02 2.62 M3.02 2.62 C3.02 2.62, 3.02 2.62, 3.02 2.62 M2.1 9.78 C5.39 6.61, 7.02 4.47, 9.97 0.72 M2.1 9.78 C4.79 6.94, 8.24 3.1, 9.97 0.72 M1.84 16.17 C4.04 13.34, 6.29 9.1, 13.65 2.59 M1.84 16.17 C5.62 12.4, 7.32 10.09, 13.65 2.59 M1.58 22.57 C6.59 16.65, 11.31 10.43, 19.29 2.19 M1.58 22.57 C6 16.62, 11.01 11.02, 19.29 2.19 M1.97 28.21 C6.38 21.62, 11.48 15.63, 24.28 2.55 M1.97 28.21 C9.86 18.9, 19.2 8.32, 24.28 2.55 M1.71 34.61 C9.9 25.66, 17.08 17.2, 29.92 2.16 M1.71 34.61 C9.13 26.81, 15.4 20.25, 29.92 2.16 M2.76 39.5 C10.11 29.62, 20.3 19.96, 34.91 2.52 M2.76 39.5 C12.28 27.61, 22.18 18.22, 34.91 2.52 M4.47 43.63 C15.85 32, 28.65 17.51, 40.55 2.13 M4.47 43.63 C13.21 32.65, 24.24 22.41, 40.55 2.13 M7.49 46.26 C19.98 29.52, 34.93 15.63, 45.54 2.49 M7.49 46.26 C20 31.41, 30.57 19.32, 45.54 2.49 M13.13 45.86 C25.6 31.91, 39.19 15.02, 50.53 2.85 M13.13 45.86 C21.61 36.04, 30.83 24.94, 50.53 2.85 M18.12 46.22 C25.93 33.24, 36.64 22.94, 56.17 2.45 M18.12 46.22 C31.61 31.98, 43.18 18.08, 56.17 2.45 M23.76 45.83 C34.7 32.36, 45.74 22.2, 61.16 2.81 M23.76 45.83 C34.78 35.28, 45.21 22.31, 61.16 2.81 M28.75 46.19 C39.44 35.74, 49.03 21.8, 66.8 2.42 M28.75 46.19 C36.66 36.1, 44.89 27.13, 66.8 2.42 M34.39 45.8 C46.59 28.98, 64.22 11.45, 71.79 2.78 M34.39 45.8 C43.3 33.63, 55.27 21.58, 71.79 2.78 M39.38 46.16 C53.54 30.44, 70.85 10.95, 77.43 2.38 M39.38 46.16 C47.73 36, 56.89 25.16, 77.43 2.38 M45.02 45.76 C56.9 31.66, 68.5 14.82, 82.42 2.74 M45.02 45.76 C52.95 36.11, 61.34 25.92, 82.42 2.74 M50.01 46.12 C63.17 31.25, 73.64 19.99, 87.4 3.1 M50.01 46.12 C59.11 36.28, 66.55 27.3, 87.4 3.1 M54.99 46.48 C63.51 36.24, 70.61 24.45, 93.05 2.71 M54.99 46.48 C66.62 33.25, 78.39 19.41, 93.05 2.71 M60.64 46.09 C71.64 34.65, 79.69 23.79, 98.03 3.07 M60.64 46.09 C69.36 36.23, 77.41 28.2, 98.03 3.07 M65.62 46.45 C77.56 33.62, 91.56 18.56, 103.68 2.67 M65.62 46.45 C80.06 30.82, 92.33 15.15, 103.68 2.67 M71.27 46.05 C78.81 35.21, 90.22 26.22, 108.66 3.03 M71.27 46.05 C78.54 36.86, 85.94 27.19, 108.66 3.03 M76.25 46.41 C85.8 36.31, 94.54 26.04, 114.31 2.64 M76.25 46.41 C84.99 35.44, 95.31 24.86, 114.31 2.64 M81.9 46.02 C88.49 36.47, 97.78 25.29, 119.95 2.24 M81.9 46.02 C88.95 37.33, 96.92 27.48, 119.95 2.24 M86.88 46.38 C96.8 37.4, 107.47 25.87, 123.62 4.11 M86.88 46.38 C96.94 35.35, 105.68 24.84, 123.62 4.11 M91.87 46.74 C101.46 37.54, 112.2 25.49, 124.67 9 M91.87 46.74 C102.92 32.39, 116.39 20.19, 124.67 9 M97.51 46.34 C104.89 38.54, 108.67 31.7, 124.41 15.4 M97.51 46.34 C106.78 36.15, 113.61 26.89, 124.41 15.4 M102.5 46.7 C105.05 42.06, 112.25 34.7, 124.81 21.04 M102.5 46.7 C109.35 40.99, 113.76 32.5, 124.81 21.04 M108.14 46.31 C112.71 38.61, 120.55 32.14, 124.55 27.44 M108.14 46.31 C114.5 38.65, 121.48 32.03, 124.55 27.44 M113.79 45.91 C119.52 42.41, 120.87 36.88, 124.28 33.84 M113.79 45.91 C116.62 42.8, 117.65 40.78, 124.28 33.84" stroke="#fa5252" stroke-width="0.5" fill="none"></path><path d="M11.34 0 M11.34 0 C35.53 2.16, 59.06 -1.25, 113.22 0 M11.34 0 C37.31 -0.08, 64.01 -0.5, 113.22 0 M113.22 0 C121.61 1.1, 124.71 4.14, 124.56 11.34 M113.22 0 C119.87 -0.79, 124.79 5.45, 124.56 11.34 M124.56 11.34 C124.5 19.22, 124.28 29.99, 124.56 34.01 M124.56 11.34 C124.07 18.61, 123.81 28.08, 124.56 34.01 M124.56 34.01 C124.03 40.95, 119.42 46.23, 113.22 45.35 M124.56 34.01 C123.23 39.4, 120.99 44.45, 113.22 45.35 M113.22 45.35 C89.68 46.24, 64.47 43.04, 11.34 45.35 M113.22 45.35 C76.9 46.65, 40.73 46.61, 11.34 45.35 M11.34 45.35 C2.57 43.5, -0.56 42.97, 0 34.01 M11.34 45.35 C1.82 46.98, 1.36 41.74, 0 34.01 M0 34.01 C1.78 27.5, -1.2 23.32, 0 11.34 M0 34.01 C-0.35 28.74, 0.75 23.94, 0 11.34 M0 11.34 C-0.81 4.97, 5.08 -0.35, 11.34 0 M0 11.34 C-1.56 3.67, 4.38 1.08, 11.34 0" stroke="#000000" stroke-width="1" fill="none"></path></g><g transform="translate(484.974609375 293.646484375) rotate(0 51.18396759033203 10)"><text x="0" y="0" font-family="Virgil, Segoe UI Emoji" font-size="16px" fill="#000000" text-anchor="start" style="white-space: pre;" direction="ltr" dominant-baseline="text-before-edge">Middleware 2</text></g><g stroke-linecap="round"><g transform="translate(527.831281432429 206.2890625) rotate(0 0.5530936779372269 36.5321227117814)"><path d="M-0.41 -0.02 C-0.28 12.04, 0.49 60.61, 0.73 73.14 M1.57 -1.08 C1.51 11.03, -0.23 61.74, -0.47 74.14" stroke="#d9480f" stroke-width="1" fill="none"></path></g><g transform="translate(527.831281432429 206.2890625) rotate(0 0.5530936779372269 36.5321227117814)"><path d="M-9.98 44.9 C-8.68 53.74, -2.57 63.65, -1.08 75.39 M-10.9 45.56 C-5.97 57.82, -2.97 68.66, 0.5 74.41" stroke="#d9480f" stroke-width="1" fill="none"></path></g><g transform="translate(527.831281432429 206.2890625) rotate(0 0.5530936779372269 36.5321227117814)"><path d="M10.53 45.46 C5.8 54.07, 5.88 63.82, -1.08 75.39 M9.61 46.13 C6.52 58.03, 1.5 68.65, 0.5 74.41" stroke="#d9480f" stroke-width="1" fill="none"></path></g></g><mask></mask><g transform="translate(535.90625 224.875) rotate(0 17.12799072265625 10)"><text x="0" y="0" font-family="Virgil, Segoe UI Emoji" font-size="16px" fill="#000000" text-anchor="start" style="white-space: pre;" direction="ltr" dominant-baseline="text-before-edge">next</text></g><g stroke-linecap="round" transform="translate(472.478515625 409.7774211198371) rotate(0 62.279296875 22.67578125)"><path d="M3.02 2.62 C3.02 2.62, 3.02 2.62, 3.02 2.62 M3.02 2.62 C3.02 2.62, 3.02 2.62, 3.02 2.62 M2.1 9.78 C5.64 8.09, 5.7 4.09, 9.97 0.72 M2.1 9.78 C4.95 5.93, 7.87 2.96, 9.97 0.72 M1.84 16.17 C4.55 11.31, 8.24 8.04, 13.65 2.59 M1.84 16.17 C6.39 10.82, 9.78 6.48, 13.65 2.59 M1.58 22.57 C5.22 15.2, 11.6 9.9, 19.29 2.19 M1.58 22.57 C8.75 14.57, 15.22 7.93, 19.29 2.19 M1.97 28.21 C10.25 20.88, 18.32 11.33, 24.28 2.55 M1.97 28.21 C8.06 20.19, 15.18 10.99, 24.28 2.55 M1.71 34.61 C6.24 27.26, 13.35 18.36, 29.92 2.16 M1.71 34.61 C9.17 25.16, 15.76 18.19, 29.92 2.16 M2.76 39.5 C14.14 25.97, 27.82 12.76, 34.91 2.52 M2.76 39.5 C12.25 28.35, 23.21 17.74, 34.91 2.52 M4.47 43.63 C16.71 27.8, 32.11 13.86, 40.55 2.13 M4.47 43.63 C12.49 33.48, 22.38 24.14, 40.55 2.13 M7.49 46.26 C16.87 32.42, 28.44 21.75, 45.54 2.49 M7.49 46.26 C16.43 37.39, 24.35 25.69, 45.54 2.49 M13.13 45.86 C26.19 31.76, 39.4 16.41, 50.53 2.85 M13.13 45.86 C23.2 34.8, 32.17 25.93, 50.53 2.85 M18.12 46.22 C29.02 34.57, 41.04 18.14, 56.17 2.45 M18.12 46.22 C31.06 30.43, 44.87 16.07, 56.17 2.45 M23.76 45.83 C34.05 35.11, 40.2 25.23, 61.16 2.81 M23.76 45.83 C36.54 31.21, 48.55 18.37, 61.16 2.81 M28.75 46.19 C38.94 34.83, 47.42 25.34, 66.8 2.42 M28.75 46.19 C43.52 29.57, 58.47 11.41, 66.8 2.42 M34.39 45.8 C47.41 31.13, 62.63 15.9, 71.79 2.78 M34.39 45.8 C46.62 32.36, 58.35 16.59, 71.79 2.78 M39.38 46.16 C50.05 33.18, 59.48 22.58, 77.43 2.38 M39.38 46.16 C53.44 30.41, 67.82 13.38, 77.43 2.38 M45.02 45.76 C54.68 34.94, 62.03 28.55, 82.42 2.74 M45.02 45.76 C60.63 30.1, 73.65 12.19, 82.42 2.74 M50.01 46.12 C61.47 31.93, 75.69 14.7, 87.4 3.1 M50.01 46.12 C57.99 36.38, 64.46 29.07, 87.4 3.1 M54.99 46.48 C64.18 37.28, 71.82 23.79, 93.05 2.71 M54.99 46.48 C64.28 37.12, 71.42 25.51, 93.05 2.71 M60.64 46.09 C72.79 34.05, 86.08 20.36, 98.03 3.07 M60.64 46.09 C73.28 31.56, 85.35 18.56, 98.03 3.07 M65.62 46.45 C81.48 27.67, 95.72 10.39, 103.68 2.67 M65.62 46.45 C75.53 34.24, 85.86 24.2, 103.68 2.67 M71.27 46.05 C85.64 28.28, 99.43 13, 108.66 3.03 M71.27 46.05 C85.46 28.51, 101.93 12.36, 108.66 3.03 M76.25 46.41 C88.07 31.91, 102.65 13.84, 114.31 2.64 M76.25 46.41 C87.46 33.47, 99.42 19.3, 114.31 2.64 M81.9 46.02 C96.13 29.56, 110.88 10.82, 119.95 2.24 M81.9 46.02 C91.25 34.17, 101.41 23.29, 119.95 2.24 M86.88 46.38 C99.78 30.41, 114.38 16.48, 123.62 4.11 M86.88 46.38 C95.84 35.59, 105.73 25.75, 123.62 4.11 M91.87 46.74 C102.36 33.37, 116.68 20.67, 124.67 9 M91.87 46.74 C103.05 35.15, 114.05 21.19, 124.67 9 M97.51 46.34 C106.97 35.44, 118.07 23.85, 124.41 15.4 M97.51 46.34 C108.17 33.77, 119.4 21.8, 124.41 15.4 M102.5 46.7 C107.67 42.56, 113.38 37.27, 124.81 21.04 M102.5 46.7 C108.31 40.44, 113.78 34.02, 124.81 21.04 M108.14 46.31 C112.26 39.63, 117.07 36.79, 124.55 27.44 M108.14 46.31 C114.13 39.22, 118.42 33.33, 124.55 27.44 M113.79 45.91 C116.05 44.21, 117.45 40.06, 124.28 33.84 M113.79 45.91 C116.93 41.93, 119.19 39.03, 124.28 33.84" stroke="#228be6" stroke-width="0.5" fill="none"></path><path d="M11.34 0 M11.34 0 C36.11 0, 65.21 -1.83, 113.22 0 M11.34 0 C35.44 -0.85, 58.78 -1.06, 113.22 0 M113.22 0 C119.2 1.02, 124.85 3.84, 124.56 11.34 M113.22 0 C119.86 0.42, 123.31 4.7, 124.56 11.34 M124.56 11.34 C123.91 21.91, 122.73 29.74, 124.56 34.01 M124.56 11.34 C124.2 20.29, 124.26 27.87, 124.56 34.01 M124.56 34.01 C122.93 42.49, 120.06 45.26, 113.22 45.35 M124.56 34.01 C123.73 41.78, 119.17 44.37, 113.22 45.35 M113.22 45.35 C74.2 44.4, 35.83 46.8, 11.34 45.35 M113.22 45.35 C84.35 44.5, 56.12 43.94, 11.34 45.35 M11.34 45.35 C2.87 45.2, 0.32 42.38, 0 34.01 M11.34 45.35 C3.33 47.48, 0.93 40.08, 0 34.01 M0 34.01 C1.22 28.29, 1.31 22.35, 0 11.34 M0 34.01 C0.54 26.82, -0.26 18.32, 0 11.34 M0 11.34 C-1.81 4.6, 4.03 -0.2, 11.34 0 M0 11.34 C1.48 4.16, 6.07 -1.94, 11.34 0" stroke="#000000" stroke-width="1" fill="none"></path></g><g transform="translate(484.599609375 421.5157023698371) rotate(0 46.59996795654297 10)"><text x="0" y="0" font-family="Virgil, Segoe UI Emoji" font-size="16px" fill="#000000" text-anchor="start" style="white-space: pre;" direction="ltr" dominant-baseline="text-before-edge">App Route 1</text></g><g stroke-linecap="round"><g transform="translate(525.8216637481687 333.91999924483713) rotate(0 0.1611663119818445 36.77941576933486)"><path d="M-0.56 0.03 C-0.64 12.5, -0.4 62.29, -0.17 74.56 M1.35 -1 C1.1 11.16, -0.91 60.2, -1.03 72.84" stroke="#d9480f" stroke-width="1" fill="none"></path></g><g transform="translate(525.8216637481687 333.91999924483713) rotate(0 0.1611663119818445 36.77941576933486)"><path d="M-10.47 44.67 C-6.18 55.62, -4.64 64.26, 0.08 72.82 M-9.72 43.42 C-8.74 51.71, -5.31 57.1, -0.96 71.9" stroke="#d9480f" stroke-width="1" fill="none"></path></g><g transform="translate(525.8216637481687 333.91999924483713) rotate(0 0.1611663119818445 36.77941576933486)"><path d="M10.04 45.23 C7.64 55.9, 2.49 64.35, 0.08 72.82 M10.8 43.98 C6.92 52.33, 5.5 57.59, -0.96 71.9" stroke="#d9480f" stroke-width="1" fill="none"></path></g></g><mask></mask><g transform="translate(535.53125 352.74812424483713) rotate(0 17.12799072265625 9.999999999999972)"><text x="0" y="0" font-family="Virgil, Segoe UI Emoji" font-size="16px" fill="#000000" text-anchor="start" style="white-space: pre;" direction="ltr" dominant-baseline="text-before-edge">next</text></g><g stroke-linecap="round" transform="translate(473.041015625 538.6572989068738) rotate(0 62.279296875 22.67578125)"><path d="M3.02 2.62 C3.02 2.62, 3.02 2.62, 3.02 2.62 M3.02 2.62 C3.02 2.62, 3.02 2.62, 3.02 2.62 M2.1 9.78 C3.54 7.33, 4.73 5.4, 9.97 0.72 M2.1 9.78 C4.36 8.18, 5.48 5.82, 9.97 0.72 M1.84 16.17 C5.33 12.46, 11.61 3.93, 13.65 2.59 M1.84 16.17 C5.48 12.23, 8.84 7.71, 13.65 2.59 M1.58 22.57 C4.88 15.86, 10.47 9.68, 19.29 2.19 M1.58 22.57 C5.98 16.71, 11.83 11.05, 19.29 2.19 M1.97 28.21 C11.74 18.71, 19.77 8.94, 24.28 2.55 M1.97 28.21 C7.15 22.81, 11.04 16.9, 24.28 2.55 M1.71 34.61 C7.97 26.54, 15.35 18.31, 29.92 2.16 M1.71 34.61 C12.04 22.42, 21.58 10.9, 29.92 2.16 M2.76 39.5 C11.32 32.94, 14.46 23.24, 34.91 2.52 M2.76 39.5 C10.25 29.88, 18.96 19.81, 34.91 2.52 M4.47 43.63 C17.36 28.95, 33.88 10.66, 40.55 2.13 M4.47 43.63 C18.55 27.06, 31.1 12.15, 40.55 2.13 M7.49 46.26 C17.55 36.42, 24.64 24.18, 45.54 2.49 M7.49 46.26 C23.1 29.74, 37.69 13.17, 45.54 2.49 M13.13 45.86 C22.88 31.64, 36.02 18.72, 50.53 2.85 M13.13 45.86 C20.55 36.64, 30.19 26.29, 50.53 2.85 M18.12 46.22 C31.31 29.51, 46.59 14.34, 56.17 2.45 M18.12 46.22 C31.69 30.79, 46.19 15.31, 56.17 2.45 M23.76 45.83 C36.19 34.02, 49.65 17.15, 61.16 2.81 M23.76 45.83 C32.57 36.9, 39.28 28.77, 61.16 2.81 M28.75 46.19 C42.99 27.22, 57.33 12, 66.8 2.42 M28.75 46.19 C39.24 35.31, 47.94 25.15, 66.8 2.42 M34.39 45.8 C45.76 31.21, 58.66 15.21, 71.79 2.78 M34.39 45.8 C42.58 36.55, 49 27.48, 71.79 2.78 M39.38 46.16 C51.97 32.85, 61.74 20.58, 77.43 2.38 M39.38 46.16 C50 34.16, 58.75 23.99, 77.43 2.38 M45.02 45.76 C53.61 37.33, 62.42 27.68, 82.42 2.74 M45.02 45.76 C55.89 33.98, 65.65 20.89, 82.42 2.74 M50.01 46.12 C66.77 30.18, 81.12 10.53, 87.4 3.1 M50.01 46.12 C61.44 32.36, 75.21 17.49, 87.4 3.1 M54.99 46.48 C64.77 33.68, 76.74 20.63, 93.05 2.71 M54.99 46.48 C67.7 32.91, 79.25 17.9, 93.05 2.71 M60.64 46.09 C71.51 33.15, 82.99 23.87, 98.03 3.07 M60.64 46.09 C68.69 38.12, 75.92 29.29, 98.03 3.07 M65.62 46.45 C78.56 32.28, 90.7 18.6, 103.68 2.67 M65.62 46.45 C79.61 30.89, 92.38 16.28, 103.68 2.67 M71.27 46.05 C84.54 30.81, 94.79 15.66, 108.66 3.03 M71.27 46.05 C81.94 34.38, 93.39 21.06, 108.66 3.03 M76.25 46.41 C86.98 34.6, 96.67 24.67, 114.31 2.64 M76.25 46.41 C85.79 34.7, 96.35 23.76, 114.31 2.64 M81.9 46.02 C89.1 34.97, 99.42 25.14, 119.95 2.24 M81.9 46.02 C96.76 29.51, 112.74 12.02, 119.95 2.24 M86.88 46.38 C95.77 37.34, 105.98 26.14, 123.62 4.11 M86.88 46.38 C95.58 36, 105.58 25.07, 123.62 4.11 M91.87 46.74 C98.39 37.72, 106.95 31.61, 124.67 9 M91.87 46.74 C97.73 37.99, 105.49 31.01, 124.67 9 M97.51 46.34 C107.69 38.56, 115.46 28.44, 124.41 15.4 M97.51 46.34 C103.38 40.22, 108.51 33.98, 124.41 15.4 M102.5 46.7 C107.83 42.6, 112.43 36.56, 124.81 21.04 M102.5 46.7 C107.84 39.23, 114.36 34.37, 124.81 21.04 M108.14 46.31 C111.49 41.74, 113.74 37.15, 124.55 27.44 M108.14 46.31 C113.32 41.29, 118.33 33.72, 124.55 27.44 M113.79 45.91 C118.8 43.07, 121.8 38.25, 124.28 33.84 M113.79 45.91 C116.98 42.44, 120.39 38.66, 124.28 33.84" stroke="#228be6" stroke-width="0.5" fill="none"></path><path d="M11.34 0 M11.34 0 C48.39 -2.41, 86.91 0.95, 113.22 0 M11.34 0 C33.06 0.53, 54.02 0.58, 113.22 0 M113.22 0 C118.9 0.83, 123.46 5.65, 124.56 11.34 M113.22 0 C119.55 1.68, 126.27 4.51, 124.56 11.34 M124.56 11.34 C125.1 16.07, 125.87 24.27, 124.56 34.01 M124.56 11.34 C123.88 17.4, 124.66 25.41, 124.56 34.01 M124.56 34.01 C125.55 41.7, 121.69 47.08, 113.22 45.35 M124.56 34.01 C122.51 42.76, 122.78 47.12, 113.22 45.35 M113.22 45.35 C74.53 44.35, 33.77 46.12, 11.34 45.35 M113.22 45.35 C82.4 46.09, 52.79 46.13, 11.34 45.35 M11.34 45.35 C1.89 44.19, -0.1 41.54, 0 34.01 M11.34 45.35 C3.58 43.11, 1.61 42.53, 0 34.01 M0 34.01 C-1.18 29.21, -0.39 21.35, 0 11.34 M0 34.01 C-0.04 29.32, -0.62 23.18, 0 11.34 M0 11.34 C1.84 4.48, 3.79 -1.19, 11.34 0 M0 11.34 C-1.47 2.75, 3.03 1.62, 11.34 0" stroke="#000000" stroke-width="1" fill="none"></path></g><g transform="translate(485.162109375 550.3955801568738) rotate(0 50.127967834472656 10)"><text x="0" y="0" font-family="Virgil, Segoe UI Emoji" font-size="16px" fill="#000000" text-anchor="start" style="white-space: pre;" direction="ltr" dominant-baseline="text-before-edge">App Route 2</text></g><g stroke-linecap="round"><g transform="translate(526.4556181488083 462.79987703187385) rotate(0 0.34339520723329997 36.69653465112674)"><path d="M-0.78 -0.71 C-0.66 11.62, 0.9 60.62, 1.46 72.98 M1.02 1.54 C0.87 14.09, 0.08 61.93, 0.28 74.1" stroke="#d9480f" stroke-width="1" fill="none"></path></g><g transform="translate(526.4556181488083 462.79987703187385) rotate(0 0.34339520723329997 36.69653465112674)"><path d="M-11.09 45.13 C-7.77 57.33, -3.31 67.86, 0.06 72.76 M-10.14 45.01 C-6.82 53.52, -2.93 61.29, 1 74.96" stroke="#d9480f" stroke-width="1" fill="none"></path></g><g transform="translate(526.4556181488083 462.79987703187385) rotate(0 0.34339520723329997 36.69653465112674)"><path d="M9.43 45.18 C5.3 57.23, 2.32 67.74, 0.06 72.76 M10.38 45.06 C7.75 53.49, 5.7 61.25, 1 74.96" stroke="#d9480f" stroke-width="1" fill="none"></path></g></g><mask></mask><g transform="translate(536.09375 481.62800203187385) rotate(0 17.12799072265625 10)"><text x="0" y="0" font-family="Virgil, Segoe UI Emoji" font-size="16px" fill="#000000" text-anchor="start" style="white-space: pre;" direction="ltr" dominant-baseline="text-before-edge">next</text></g><g mask="url(#mask-1NFr_xl5qaGeS5UPbxWy2)" stroke-linecap="round"><g transform="translate(472.15234375 561.234375) rotate(0 -188.08512880723694 -136.48956514445345)"><path d="M-0.88 -0.58 C-59.55 -2.66, -293.94 34.9, -351.62 -12.68 C-409.29 -60.26, -347.57 -240.46, -346.92 -286.09 M0.86 1.73 C-57.96 -0.22, -294.33 36.07, -352.34 -11.68 C-410.35 -59.42, -348.04 -239.11, -347.22 -284.75" stroke="#2b8a3e" stroke-width="1" fill="none"></path></g><g transform="translate(472.15234375 561.234375) rotate(0 -188.08512880723694 -136.48956514445345)"><path d="M-343 -254.49 C-345.4 -263.57, -345.36 -274.66, -347.78 -285.15 M-342.03 -254.7 C-342.92 -261.79, -343.36 -270.18, -346.7 -283.88" stroke="#2b8a3e" stroke-width="1" fill="none"></path></g><g transform="translate(472.15234375 561.234375) rotate(0 -188.08512880723694 -136.48956514445345)"><path d="M-363.21 -258.07 C-358.91 -265.81, -352.16 -275.71, -347.78 -285.15 M-362.24 -258.29 C-358.34 -264.55, -353.96 -272.09, -346.7 -283.88" stroke="#2b8a3e" stroke-width="1" fill="none"></path></g></g><mask id="mask-1NFr_xl5qaGeS5UPbxWy2"><rect x="0" y="0" fill="#fff" width="924.1953125" height="947.36328125"></rect><rect x="85.1333999633789" y="539.5703125" fill="#000" width="69.95195007324219" height="20" opacity="1"></rect></mask><g transform="translate(85.1333999633789 539.5703125) rotate(0 198.93381497938415 -114.82550264445345)"><text x="34.975975036621094" y="0" font-family="Virgil, Segoe UI Emoji" font-size="16px" fill="#2b8a3e" text-anchor="middle" style="white-space: pre;" direction="ltr" dominant-baseline="text-before-edge">Response</text></g><g transform="translate(782.28515625 98.20703125) rotate(0 44.1839599609375 90)"><text x="0" y="0" font-family="Virgil, Segoe UI Emoji" font-size="16px" fill="#000000" text-anchor="start" style="white-space: pre;" direction="ltr" dominant-baseline="text-before-edge">app.use</text><text x="0" y="20" font-family="Virgil, Segoe UI Emoji" font-size="16px" fill="#000000" text-anchor="start" style="white-space: pre;" direction="ltr" dominant-baseline="text-before-edge">app.all</text><text x="0" y="40" font-family="Virgil, Segoe UI Emoji" font-size="16px" fill="#000000" text-anchor="start" style="white-space: pre;" direction="ltr" dominant-baseline="text-before-edge">app.post</text><text x="0" y="60" font-family="Virgil, Segoe UI Emoji" font-size="16px" fill="#000000" text-anchor="start" style="white-space: pre;" direction="ltr" dominant-baseline="text-before-edge">app.get</text><text x="0" y="80" font-family="Virgil, Segoe UI Emoji" font-size="16px" fill="#000000" text-anchor="start" style="white-space: pre;" direction="ltr" dominant-baseline="text-before-edge">...</text><text x="0" y="100" font-family="Virgil, Segoe UI Emoji" font-size="16px" fill="#000000" text-anchor="start" style="white-space: pre;" direction="ltr" dominant-baseline="text-before-edge">router.all</text><text x="0" y="120" font-family="Virgil, Segoe UI Emoji" font-size="16px" fill="#000000" text-anchor="start" style="white-space: pre;" direction="ltr" dominant-baseline="text-before-edge">router.post</text><text x="0" y="140" font-family="Virgil, Segoe UI Emoji" font-size="16px" fill="#000000" text-anchor="start" style="white-space: pre;" direction="ltr" dominant-baseline="text-before-edge">router.get</text><text x="0" y="160" font-family="Virgil, Segoe UI Emoji" font-size="16px" fill="#000000" text-anchor="start" style="white-space: pre;" direction="ltr" dominant-baseline="text-before-edge"></text></g><g stroke-opacity="0.6" fill-opacity="0.6" transform="translate(214.6953125 25.89453125) rotate(0 154.609375 0.05859375)" stroke="none"><path fill="#e67700" d="M 0,-10.09 Q 0,-10.09 3.17,-10.28 6.34,-10.47 10.92,-10.85 15.49,-11.23 19.94,-11.62 24.39,-12.01 28.88,-12.05 33.36,-12.09 37.94,-11.89 42.52,-11.68 47.45,-11.59 52.37,-11.50 56.93,-11.14 61.48,-10.78 65.72,-10.34 69.96,-9.90 75.78,-10.23 81.61,-10.55 85.91,-10.94 90.21,-11.32 94.81,-11.69 99.42,-12.07 103.87,-12.34 108.33,-12.61 114.42,-12.95 120.51,-13.29 125.52,-13.46 130.53,-13.63 135.58,-14.19 140.63,-14.74 145.40,-14.86 150.17,-14.98 155.14,-15.12 160.11,-15.26 165.61,-15.60 171.11,-15.93 177.03,-16.42 182.95,-16.90 187.79,-17.22 192.63,-17.55 197.09,-17.26 201.54,-16.97 206.03,-16.39 210.52,-15.81 215.27,-15.66 220.01,-15.51 224.47,-15.68 228.93,-15.85 233.20,-16.35 237.48,-16.86 242.34,-17.28 247.19,-17.70 252.13,-18.11 257.06,-18.52 261.38,-18.54 265.70,-18.56 271.18,-18.90 276.66,-19.25 281.64,-19.43 286.62,-19.61 291.77,-19.23 296.93,-18.85 302.62,-17.49 308.30,-16.12 309.61,-16.04 310.91,-15.95 313.28,-15.28 315.65,-14.62 317.68,-13.23 319.71,-11.84 321.19,-9.88 322.67,-7.91 323.44,-5.58 324.22,-3.25 324.21,-0.79 324.20,1.66 323.41,3.99 322.61,6.31 321.12,8.26 319.62,10.22 317.58,11.59 315.54,12.96 313.17,13.61 310.80,14.26 308.34,14.12 305.89,13.97 303.61,13.05 301.33,12.14 299.46,10.54 297.59,8.94 296.33,6.83 295.07,4.71 294.55,2.31 294.04,-0.08 294.31,-2.53 294.59,-4.97 295.63,-7.20 296.67,-9.42 298.37,-11.20 300.06,-12.98 302.24,-14.12 304.42,-15.27 306.85,-15.66 309.27,-16.04 311.70,-15.64 314.12,-15.23 316.29,-14.07 318.46,-12.91 320.14,-11.12 321.83,-9.33 322.85,-7.09 323.87,-4.85 324.13,-2.41 324.39,0.03 323.85,2.43 323.31,4.82 322.03,6.93 320.76,9.03 318.88,10.61 317.00,12.20 314.71,13.10 312.42,14.00 309.97,14.12 307.51,14.25 307.51,14.25 307.51,14.25 303.49,13.36 299.46,12.48 295.24,11.56 291.02,10.64 286.38,10.59 281.73,10.54 277.44,10.84 273.15,11.15 267.85,11.32 262.55,11.49 258.13,11.61 253.70,11.73 248.83,12.05 243.96,12.37 239.15,12.80 234.35,13.23 228.78,13.48 223.22,13.73 218.27,13.58 213.33,13.44 208.80,12.98 204.27,12.52 199.77,11.81 195.26,11.10 190.33,11.27 185.39,11.44 179.52,12.05 173.65,12.65 167.57,13.17 161.49,13.68 156.01,13.94 150.53,14.19 145.31,14.39 140.09,14.60 134.34,15.00 128.60,15.40 123.27,15.53 117.93,15.66 111.86,15.97 105.80,16.28 101.51,16.57 97.23,16.86 90.75,17.41 84.26,17.96 78.93,18.35 73.61,18.75 68.53,18.10 63.46,17.44 58.26,16.60 53.05,15.77 47.79,15.24 42.52,14.71 37.69,14.01 32.85,13.31 28.62,12.66 24.39,12.01 19.94,11.62 15.49,11.23 10.92,10.85 6.34,10.47 3.17,10.28 0,10.09 -1.20,9.95 -2.41,9.80 -3.55,9.37 -4.69,8.94 -5.69,8.25 -6.69,7.55 -7.50,6.64 -8.31,5.73 -8.87,4.65 -9.44,3.58 -9.73,2.39 -10.02,1.21 -10.02,-0.00 -10.02,-1.21 -9.73,-2.39 -9.44,-3.58 -8.87,-4.65 -8.31,-5.73 -7.50,-6.64 -6.69,-7.56 -5.69,-8.25 -4.69,-8.94 -3.55,-9.37 -2.41,-9.80 -1.20,-9.95 0.00,-10.09 0.00,-10.09 L 0,-10.09 Z"></path></g><g transform="translate(238.23828125 10) rotate(0 147.0698699951172 12.5)"><text x="0" y="0" font-family="Virgil, Segoe UI Emoji" font-size="20px" fill="#c92a2a" text-anchor="start" style="white-space: pre;" direction="ltr" dominant-baseline="text-before-edge">Express Middleware Behaviour</text></g></svg>